<svg xmlns="http://www.w3.org/2000/svg" width="28" height="28" viewBox="1841 34 28 28"><path d="m1869 60.301-8.262-8.269a11.06 11.06 0 0 0 2.396-6.077 11.256 11.256 0 0 0 .033-.857A11.091 11.091 0 0 0 1852.083 34 11.09 11.09 0 0 0 1841 45.098c0 6.125 4.966 11.098 11.083 11.098a11.02 11.02 0 0 0 5.544-1.488 11.16 11.16 0 0 0 1.42-.977L1867.3 62l1.699-1.699Zm-23.348-8.758a9.041 9.041 0 0 1-2.661-6.438 9.068 9.068 0 0 1 2.66-6.439 9.038 9.038 0 0 1 6.432-2.674 9.044 9.044 0 0 1 6.432 2.667 9.042 9.042 0 0 1 2.661 6.44 9.069 9.069 0 0 1-2.661 6.437 9.043 9.043 0 0 1-6.432 2.668 9.3 9.3 0 0 1-.025 0 9.009 9.009 0 0 1-6.406-2.66Z" fill="rgba(255, 255, 255, 1)" fill-rule="evenodd" data-name="Search Icon"/></svg>